<svg xmlns="http://www.w3.org/2000/svg" fill="none" viewBox="0 0 195 48" width="195" height="48"><path d="M25.4967 0.811589L46.4863 22.0819C46.7343 22.3188 46.9334 22.6026 47.0722 22.9171C47.2109 23.2317 47.2866 23.5707 47.2948 23.9147C47.303 24.2588 47.2436 24.601 47.12 24.9219C46.9965 25.2428 46.8111 25.5359 46.5746 25.7845L46.4863 25.8846L36.3119 36.2028L35.3066 37.2146V32.478L36.0799 31.6997L42.5535 25.1062C42.8383 24.8306 43.0037 24.4533 43.0141 24.0558C43.0244 23.6583 42.8788 23.2727 42.6087 22.9825L42.5535 22.9269L24.7345 4.92556C24.4831 4.64836 24.1331 4.48233 23.7607 4.46358C23.3883 4.44484 23.0236 4.57491 22.746 4.82549L22.6466 4.92556L4.76128 23.0048C4.484 23.2877 4.32855 23.6692 4.32855 24.0666C4.32855 24.4641 4.484 24.8455 4.76128 25.1285L14.8584 35.3689V21.6149C14.8516 21.1095 14.9459 20.6079 15.1357 20.1399C15.3255 19.6719 15.6069 19.2471 15.9631 18.8908L23.1326 11.6747C23.2079 11.5815 23.302 11.5056 23.4086 11.4519C23.5153 11.3982 23.6321 11.3681 23.7513 11.3634L23.674 48.0555C22.9841 48.0219 22.3275 47.7466 21.818 47.2772L19.2772 44.7199L0.751171 25.9624C0.266231 25.4497 -0.00424194 24.7689 -0.00424194 24.0611C-0.00424194 23.3532 0.266231 22.6724 0.751171 22.1597L21.7959 0.811589C22.0225 0.560964 22.2965 0.358379 22.6019 0.215707C22.9073 0.0730338 23.2379 -0.00685676 23.5743 -0.0192833C23.9107 -0.0317097 24.2462 0.0235779 24.5612 0.143339C24.8761 0.263101 25.1641 0.444927 25.4084 0.678163L25.5409 0.811589" fill="#F7931D"></path><path d="M23.7292 11.2856C24.0385 11.2856 24.1932 11.4524 24.4252 11.6748L32.0588 19.458C32.4457 19.8884 32.7429 20.3926 32.9327 20.9408C33.1224 21.4889 33.2009 22.0698 33.1635 22.6491V39.3273L25.4305 47.244C25.1985 47.3996 24.7345 47.3996 24.6572 46.4656V45.8541L23.7292 11.2856Z" fill="#FFBB16"></path><path d="M77.6944 40.8618H86.024C86.4106 40.8618 86.488 40.784 86.488 40.3948V39.7722C86.488 39.383 86.4106 39.383 85.9466 39.383H78.7771V33.957H85.0629C85.4495 33.957 85.5268 33.8792 85.5268 33.49V32.8674C85.5268 32.4782 85.4495 32.4782 84.9855 32.4782H78.7771V27.7972H86.1013C86.488 27.7972 86.5653 27.7194 86.5653 27.3302V26.6853C86.5653 26.3073 86.488 26.3073 86.024 26.3073H76.8549C76.3135 26.3073 76.3135 26.3073 76.3135 26.9188V40.7062C76.3135 41.0953 76.3909 41.1731 76.7775 41.1731H77.6944V40.8618ZM113.321 34.8021L115.995 28.4421L118.392 34.8021H113.321ZM115.321 26.4963C113.112 31.1551 111.013 35.6582 108.847 40.317C108.615 40.8618 108.693 40.8618 109.234 40.8618H110.339C110.792 40.8618 110.869 40.8618 111.024 40.4727L112.681 36.2809H118.768C119.309 37.6707 119.773 39.0717 120.314 40.4727C120.469 40.9397 120.624 40.9397 121.088 40.9397H122.248C122.866 40.9397 123.021 40.9397 122.789 40.3948C120.933 35.736 119.165 31.2329 117.387 26.4963C117.232 26.1961 117.155 26.1961 116.779 26.1961H115.774C115.531 26.0404 115.454 26.1961 115.31 26.5074L115.321 26.4963ZM104.274 26.4185V40.4727C104.274 40.8618 104.351 40.8618 104.738 40.8618H106.052C106.439 40.8618 106.516 40.8618 106.516 40.4727V26.5074C106.516 26.1961 106.439 26.1182 106.13 26.1182H104.451C104.373 26.0404 104.373 26.1182 104.296 26.4296L104.274 26.4185ZM125.02 26.4185V40.4727C125.02 40.784 125.098 40.784 125.407 40.784H134.112C134.499 40.784 134.499 40.7062 134.499 40.317V39.6165C134.499 39.3052 134.499 39.2274 134.189 39.1495H127.329V26.4296C127.329 26.1182 127.252 26.0404 126.943 26.0404H125.274C125.042 26.0404 125.042 26.1182 125.042 26.4296L125.02 26.4185ZM90.7742 27.5971C92.0115 27.5192 92.6302 27.5192 93.6354 27.5192C94.5378 27.4054 95.4541 27.5071 96.3102 27.8162C97.1662 28.1253 97.9378 28.633 98.5625 29.2982C99.3871 30.5043 99.7947 31.9499 99.7224 33.4122C99.7818 34.3433 99.6408 35.2763 99.3091 36.1475C98.9773 37.0187 98.4627 37.8075 97.8002 38.4602C96.484 39.2984 94.9347 39.6882 93.3814 39.572H90.7963L90.7742 27.5971ZM88.7968 41.0175H92.9616C94.7266 41.1197 96.4922 40.8273 98.1316 40.1613C99.4435 39.5691 100.549 38.5947 101.305 37.3639C102.061 36.1331 102.433 34.7024 102.374 33.2565C102.423 31.4967 101.878 29.772 100.827 28.3643C98.8939 26.1405 96.121 26.1405 94.1215 26.1405C91.4923 26.1405 89.8021 26.2961 88.7968 26.2961H88.6421C88.5648 26.2961 88.4875 26.374 88.4875 26.5296V40.7062C88.377 40.9397 88.4985 41.0175 88.7968 41.0175ZM66.2054 27.5971C67.1334 27.5192 67.8294 27.5192 68.0613 27.5192C69.5306 27.5192 71.7621 27.5192 71.7621 30.31C71.7621 33.1009 69.2986 33.3566 67.6747 33.3566C67.1579 33.3809 66.6399 33.3549 66.1281 33.2788V27.5971H66.2054ZM66.2054 34.6575C67.0304 34.7318 67.8612 34.7057 68.68 34.5797C69.2351 35.6486 69.8511 36.6844 70.5249 37.6818C71.0556 38.5909 71.7354 39.4029 72.5354 40.0835C73.1216 40.5697 73.8529 40.8438 74.6123 40.8618H74.8443V39.2274C74.5327 39.0621 74.267 38.8214 74.071 38.5269C73.4853 37.9138 72.9668 37.2391 72.5244 36.5144C72.0604 35.8139 71.5964 34.9577 71.0662 34.0349C71.9623 33.8042 72.7609 33.2893 73.3438 32.5665C73.9267 31.8436 74.263 30.9511 74.303 30.021C74.3203 29.4788 74.2184 28.9396 74.0045 28.4417C73.7906 27.9439 73.47 27.4998 73.0657 27.1412C71.961 26.1405 70.4475 26.0293 68.3596 26.0293H67.3875C66.9235 26.0293 65.0676 26.1071 64.1396 26.1071H63.9629C63.8082 26.1071 63.8082 26.185 63.7419 26.3406V40.5505C63.7419 40.8618 63.8192 40.8618 64.1175 40.9397H65.8188C66.1281 40.9397 66.2054 40.8618 66.2054 40.5505V34.6575ZM53.7222 27.5971C54.6501 27.5192 55.3351 27.5192 55.567 27.5192C57.0363 27.5192 59.2678 27.5192 59.2678 30.31C59.2678 33.1009 56.8043 33.3566 55.2356 33.3566C54.7188 33.3804 54.2009 33.3543 53.689 33.2788V27.5971H53.7222ZM53.7222 34.6575C54.5435 34.7316 55.3706 34.7055 56.1857 34.5797C58.4945 34.3462 61.7092 33.5679 61.8197 30.0766C61.837 29.5361 61.7349 28.9985 61.521 28.5024C61.3071 28.0064 60.9865 27.5643 60.5824 27.2079C59.4777 26.1961 57.9643 26.096 55.8764 26.096H54.8821C54.4181 26.096 52.5622 26.1738 51.6343 26.1738H51.4796C51.3249 26.1738 51.3249 26.2517 51.2587 26.4073V40.6283C51.2587 40.9397 51.336 40.9397 51.6343 41.0175H53.3355C53.6448 41.0175 53.7222 40.9397 53.7222 40.6283V34.6575Z" fill="#FFFFFF"></path><path d="M83.8698 22.1599H82.3232C81.8592 22.1599 81.8592 22.0043 82.2459 21.5373L87.6479 14.4546C86.1013 12.2308 84.5658 10.007 83.0192 7.84999C82.6325 7.30516 83.0192 7.39411 83.7151 7.39411H84.8198C85.2838 7.39411 85.4385 7.39411 85.6705 7.77215L88.9846 12.7423L92.7296 7.78327C93.0389 7.31628 93.1162 7.31628 93.7349 7.31628H94.6628C95.3588 7.31628 95.6571 7.23845 95.2815 7.70544L94.7402 8.40593L90.1887 14.4546C91.89 16.8562 93.5029 19.1801 95.2041 21.5929C95.6681 22.2822 95.4361 22.2155 94.5855 22.2155H93.4808C92.7959 22.2155 92.7959 22.2155 92.3761 21.6707L88.8299 16.2336L84.6541 21.793C84.5768 21.8708 84.5768 21.9487 84.4995 21.9487C84.1901 22.26 84.1902 22.26 83.8145 22.26L83.8698 22.1599ZM170.126 8.72837C171.043 8.65054 171.739 8.65054 171.971 8.65054C173.44 8.65054 175.671 8.65054 175.671 11.4414C175.671 14.399 173.208 14.4768 171.584 14.4768C171.067 14.49 170.55 14.464 170.037 14.399V8.72837H170.126ZM184.388 16.0223L187.006 9.66236L189.392 16.0223H184.388ZM170.126 15.7888C170.947 15.8686 171.775 15.8424 172.589 15.711C173.142 16.7849 173.758 17.8246 174.434 18.8243C174.968 19.7312 175.647 20.5428 176.445 21.2259C177.033 21.7077 177.763 21.9812 178.522 22.0043H181.173C181.858 22.0043 182.09 21.6929 182.278 21.1481L183.824 17.4233H190.011C190.552 18.8243 191.005 20.2252 191.557 21.6151C191.712 22.0821 191.866 22.0821 192.33 22.0821H193.435C194.054 22.0821 194.208 22.0821 193.976 21.5373C192.132 16.8785 190.353 12.3754 188.585 7.64985C188.431 7.33852 188.353 7.33852 187.967 7.33852H186.962C186.652 7.33852 186.575 7.49418 186.42 7.80551C184.498 11.9973 182.487 16.1113 180.565 20.292C180.411 20.6033 180.333 20.6811 180.024 20.759C179.63 20.7795 179.237 20.7067 178.876 20.5464C178.516 20.3861 178.197 20.1428 177.947 19.8361C177.364 19.2169 176.846 18.5387 176.4 17.8125C175.937 17.112 175.473 16.2558 174.931 15.333C175.835 15.1065 176.64 14.5901 177.226 13.8619C177.812 13.1338 178.147 12.2333 178.179 11.2968C178.196 10.7563 178.094 10.2187 177.88 9.72271C177.666 9.22668 177.346 8.78456 176.942 8.42817C175.837 7.41635 174.324 7.31628 172.236 7.31628H171.23C170.766 7.31628 168.922 7.39411 167.994 7.39411H167.839C167.684 7.39411 167.684 7.47195 167.607 7.62761V21.8486C167.607 22.1599 167.684 22.1599 167.994 22.2378H169.695C170.004 22.2378 170.082 22.1599 170.082 21.8486V15.7888H170.126ZM157.974 8.506C161.288 8.506 163.365 11.686 163.365 14.9438C163.365 18.2016 161.155 20.9146 158.129 20.9146C154.892 20.9146 152.417 18.046 152.417 14.4768C152.45 12.2308 153.643 8.506 158.04 8.506H157.974ZM158.361 6.94936C156.466 6.87989 154.599 7.42564 153.036 8.506C152.033 9.2127 151.215 10.1531 150.651 11.2471C150.087 12.341 149.795 13.5559 149.799 14.7881C149.786 15.7756 149.967 16.756 150.331 17.6731C150.695 18.5901 151.235 19.4259 151.92 20.1324C152.606 20.8389 153.423 21.4023 154.326 21.7903C155.228 22.1783 156.197 22.3833 157.179 22.3934H157.587C162.603 22.3934 165.839 18.9021 165.839 14.4768C165.936 12.5797 165.28 10.7216 164.017 9.31032C162.754 7.89907 160.985 7.04997 159.101 6.94936C158.876 6.93094 158.651 6.93094 158.427 6.94936H158.361ZM136.686 8.65054C137.912 8.57271 138.531 8.57271 139.536 8.57271C140.441 8.46466 141.358 8.57018 142.215 8.8809C143.072 9.19162 143.846 9.69901 144.474 10.3628C145.28 11.5757 145.668 13.0208 145.579 14.4768C145.638 15.4062 145.497 16.3375 145.165 17.2069C144.834 18.0763 144.319 18.8632 143.657 19.5136C142.338 20.3461 140.791 20.7355 139.238 20.6255H136.62L136.686 8.65054ZM134.676 22.0821H138.84C140.605 22.1843 142.371 21.8919 144.01 21.2259C145.322 20.6337 146.428 19.6593 147.184 18.4285C147.94 17.1977 148.312 15.767 148.252 14.3211C148.301 12.5613 147.756 10.8366 146.706 9.42886C144.773 7.20509 142 7.20509 140 7.20509C137.371 7.20509 135.681 7.36076 134.676 7.36076H134.521C134.444 7.36076 134.366 7.43859 134.366 7.59425V21.7708C134.289 22.0043 134.366 22.0821 134.676 22.0821ZM113.686 7.62761V21.6929C113.686 22.0821 113.763 22.0821 114.15 22.0821H115.454C115.84 22.0821 115.917 22.0821 115.917 21.6929V7.78327C115.917 7.47195 115.84 7.39411 115.531 7.39411H113.841C113.785 7.33852 113.708 7.40523 113.708 7.63873L113.686 7.62761ZM102.12 7.62761V21.6929C102.12 22.0043 102.197 22.0043 102.506 22.0043H111.211C111.598 22.0043 111.598 21.9264 111.598 21.5373V20.8368C111.598 20.5255 111.598 20.4476 111.289 20.3698H104.451V7.78327C104.451 7.47195 104.373 7.39411 104.064 7.39411H102.374C102.142 7.33852 102.142 7.40523 102.142 7.63873L102.12 7.62761ZM97.7008 7.93894V21.6929C97.7008 22.0821 97.7781 22.1599 98.1648 22.1599H99.7114C100.098 22.1599 100.175 22.0821 100.175 21.6151V7.78327C100.175 7.39411 100.098 7.39411 99.634 7.39411H98.3194C97.6676 7.33852 97.6676 7.33852 97.6676 7.95006L97.7008 7.93894ZM67.4427 7.63873V15.244C67.4427 18.4351 67.5974 19.358 68.2933 20.3698C68.8346 21.1481 69.9173 22.3156 73.0767 22.3156C75.0268 22.4487 76.9508 21.8058 78.4346 20.5255C79.5393 19.358 79.7823 17.7902 79.7823 14.7881C79.7823 12.3754 79.8597 9.97368 79.8597 7.63873C79.8597 7.26069 79.705 7.33852 79.3957 7.33852H78.4346C78.0479 7.33852 77.9706 7.33852 77.9706 7.71656V14.866C77.9706 16.8006 77.8933 18.2795 77.363 19.0466C76.925 19.5767 76.3679 19.9943 75.7379 20.265C75.1079 20.5356 74.4229 20.6516 73.7396 20.6033C73.2756 20.6033 71.1987 20.5255 70.3371 19.3691C69.8068 18.5129 69.8068 17.5011 69.8068 15.2551V7.78327C69.8068 7.39411 69.6521 7.39411 69.2655 7.39411H67.984C67.5974 7.33852 67.4427 7.26069 67.4427 7.63873ZM55.8764 16.0223L58.5498 9.66236L60.9359 16.0223H55.8764ZM57.8869 7.78327C55.6775 12.4309 53.5675 16.9341 51.4023 21.5929C51.1813 22.1377 51.2476 22.1377 51.7889 22.1377H52.8936C53.3576 22.1377 53.4349 22.1377 53.5896 21.7485L55.2356 17.5011H61.411C61.9523 18.9021 62.4052 20.292 62.9576 21.6929C63.1122 22.1599 63.2669 22.1599 63.7309 22.1599H64.8356C65.4542 22.1599 65.6089 22.1599 65.3769 21.6151C63.5873 16.9563 61.8639 12.4532 60.0411 7.78327C59.8865 7.47195 59.8091 7.47195 59.4225 7.47195H58.4172C58.1189 7.33852 58.0416 7.48306 57.8869 7.78327ZM122.877 16.0779L125.506 9.71795L127.893 16.0779H122.877ZM124.888 7.78327C122.678 12.4309 120.568 16.9341 118.403 21.5929C118.182 22.1377 118.248 22.1377 118.79 22.1377H119.894C120.358 22.1377 120.436 22.1377 120.59 21.7485L122.281 17.5567H128.379C128.92 18.9577 129.384 20.3476 129.925 21.7485C130.08 22.2155 130.235 22.2155 130.699 22.2155H131.803C132.422 22.2155 132.577 22.2155 132.345 21.6707C130.5 17.0119 128.721 12.5088 126.954 7.78327C126.799 7.47195 126.722 7.47195 126.335 7.47195H125.33C125.12 7.33852 125.031 7.48306 124.888 7.78327Z" fill="#FFFFFF"></path></svg>